<?xml version="1.0" encoding="UTF-8"?>
<svg id="_圖層_1" xmlns="http://www.w3.org/2000/svg" version="1.1" viewBox="0 0 500 500">
  <!-- Generator: Adobe Illustrator 29.5.1, SVG Export Plug-In . SVG Version: 2.1.0 Build 141)  -->
  <defs>
    <style>
      .st0 {
        fill: #22b7db;
      }

      .st1 {
        fill: #0089ae;
      }

      .st2 {
        fill: #040000;
      }

      .st3 {
        fill: #fff;
      }
    </style>
  </defs>
  <path class="st1" d="M127.8,192.5c-4.9-19.9-22.7-34.4-43.9-34.4s-45.2,20.2-45.2,45.2c-18.3,0-33.1,14.7-33.1,33.1s14.7,33.1,33.1,33.1h85.5c20.9-.3,38-17.3,38-38.5s-15-36.2-34.4-38.2"/>
  <path class="st3" d="M74.5,198.7c5.9,0,10.6-4.7,10.6-10.6s-4.7-10.6-10.6-10.6-10.6,4.7-10.6,10.6,4.7,10.6,10.6,10.6Z"/>
  <path class="st3" d="M110.7,229.5c6.7,0,12.1-5.4,12.1-12.1s-5.4-12.1-12.1-12.1-12.1,5.4-12.1,12.1,5.4,12.1,12.1,12.1Z"/>
  <path class="st3" d="M57.7,257.9c7.6,0,13.7-6.1,13.7-13.7s-6.1-13.7-13.7-13.7-13.7,6.1-13.7,13.7,6.1,13.7,13.7,13.7Z"/>
  <polygon class="st3" points="59.5 247.6 56 240.7 103.6 216.6 72.1 191.1 77 185.1 117.8 218.1 59.5 247.6"/>
  <path class="st2" d="M293.9,224.5h-18.9c-1.8,0-2.6-.8-2.6-2.6v-7.2c0-1.8.8-2.8,2.6-2.8h18.9c1.8,0,2.6,1,2.6,2.8v7.2c0,1.8-.8,2.6-2.6,2.6Z"/>
  <path class="st2" d="M354.9,257.6h-42.6c-1.8,0-2.6-.8-2.6-2.6v-74.2c0-1.8.8-2.6,2.6-2.6h42.6c1.6,0,2.6.8,2.6,2.6v8.5c0,1.8-.8,2.6-2.6,2.6h-28.2c-1,0-1.6.5-1.6,1.3v16c0,1,.5,1.3,1.6,1.3h25.8c1.8,0,2.6.8,2.6,2.6v8.5c0,1.8-.8,2.6-2.6,2.6h-25.8c-1,0-1.6.5-1.6,1.3v17.1c0,1,.5,1.3,1.6,1.3h28.2c1.6,0,2.6.8,2.6,2.6v8.5c0,1.8-.8,2.6-2.6,2.6Z"/>
  <path class="st2" d="M405.8,257.6h-15.8c-6.5,0-11.6-1.8-15-5.2-3.6-3.4-5.4-8.5-5.4-15v-39.3c0-6.5,1.8-11.4,5.4-15,3.6-3.4,8.5-5.2,15-5.2h15.8c6.5,0,11.4,1.8,15,5.2,3.6,3.6,5.4,8.5,5.4,15v5.7c0,1.8-1,2.8-2.8,2.8h-10.3c-1.8,0-2.6-1-2.6-2.8v-5.2c0-2.6-.5-4.4-1.6-5.7s-3.1-1.6-5.7-1.6h-10.9c-2.6,0-4.4.5-5.4,1.6s-1.6,3.1-1.6,5.7v37.7c0,2.6.5,4.4,1.6,5.7,1,1,2.8,1.6,5.4,1.6h10.9c2.6,0,4.4-.5,5.7-1.6s1.6-3.1,1.6-5.7v-5.2c0-1.8.8-2.8,2.6-2.8h10.3c1.8,0,2.8,1,2.8,2.8v5.7c0,6.5-1.8,11.4-5.4,15s-8.5,5.2-15,5.2v.5Z"/>
  <path class="st2" d="M437.9,237.2v-2.6c0-1.8.8-2.6,2.6-2.6h10.6c1.8,0,2.6.8,2.6,2.6v1c0,3.1.5,5.2,1.8,6.5,1.3,1,3.6,1.8,6.7,1.8h8.3c3.1,0,5.4-.5,6.7-1.8s1.8-3.6,1.8-7v-1.6c0-2.3-1-4.1-2.8-5.4-1.8-1.3-6.7-2.1-9.6-2.3-2.8,0-5.9-.8-9.3-1.6-3.4-.8-6.5-1.6-9.3-2.8-2.8-1-5.2-3.4-7.2-6.5-1.8-3.4-2.8-7.5-2.8-12.7v-4.4c0-6.5,1.8-11.4,5.4-15s8.5-5.4,15-5.4h14.7c6.5,0,11.6,1.8,15.2,5.4,3.6,3.6,5.4,8.5,5.4,15v2.3c0,1.8-.8,2.6-2.6,2.6h-10.6c-1.8,0-2.6-.8-2.6-2.6v-.8c0-3.1-.5-5.4-1.8-6.5s-5.9-1.8-9-1.8h-4.9c-3.4,0-5.7.5-7,1.8s-1.8,3.9-1.8,7.5v2.3c0,3.9,3.4,6.2,10.1,6.7,7,.5,15.5,2.1,20.9,4.1,2.8,1.3,5.2,3.4,7.2,6.7,1.8,3.1,2.8,7.2,2.8,12.1v4.1c0,6.5-1.8,11.4-5.4,15-3.6,3.6-8.5,5.4-15,5.4h-15.8c-6.5,0-11.4-1.8-15-5.4-3.6-3.6-5.4-8.5-5.4-15v.5Z"/>
  <path class="st2" d="M226.7,257.6h-29.5c-1,0-1.8-.8-1.8-1.8v-75.7c0-1,.8-1.8,1.8-1.8h29.5c18.9,0,34.1,15.2,34.1,34.1v11.1c0,18.9-15.2,34.1-34.1,34.1ZM212.3,242.1h14.7c10.3,0,18.6-8.3,18.6-18.6v-11.1c0-10.3-8.3-18.6-18.6-18.6h-14.7c-.5,0-1,.5-1,1v46.3c0,.5.5,1,1,1Z"/>
  <path class="st0" d="M324.2,312.1c-1.3-1.6-2.8-2.6-4.4-3.4-1.6-.8-3.4-1-5.4-1s-3.9.3-5.4,1c-1.6.8-2.8,1.8-3.9,3.1s-1.8,2.8-2.3,4.4c-.5,1.6-.8,3.4-.8,5.2s.3,3.6.8,5.2c.5,1.6,1.6,3.1,2.6,4.1,1,1.3,2.3,2.1,3.9,2.8,1.6.8,3.4,1,5.2,1s3.9-.3,5.4-1c1.6-.8,2.8-1.8,4.1-3.4l5.2,5.2c-1.8,2.1-4.1,3.6-6.7,4.7s-5.2,1.3-8,1.3-5.7-.5-8.3-1.6c-2.6-1-4.7-2.3-6.5-4.1-1.8-1.8-3.1-3.9-4.1-6.5-1-2.6-1.6-5.2-1.6-8.3s.5-5.7,1.6-8.3c1-2.6,2.3-4.7,4.1-6.5,1.8-1.8,3.9-3.1,6.5-4.1,2.6-1,5.2-1.6,8.3-1.6s5.7.5,8.3,1.6c2.6,1,4.9,2.6,6.7,4.7l-5.7,5.2.5.3Z"/>
  <path class="st0" d="M336.3,278.6h7.5v62.3h-7.5v-62.3Z"/>
  <path class="st0" d="M353.6,321.2c0-2.8.5-5.4,1.6-8,1-2.6,2.6-4.7,4.4-6.5s4.1-3.4,6.5-4.4c2.6-1,5.2-1.6,8-1.6s5.7.5,8,1.6c2.6,1,4.7,2.6,6.5,4.4,1.8,1.8,3.4,4.1,4.4,6.5,1,2.6,1.6,5.2,1.6,8s-.5,5.4-1.6,8-2.6,4.7-4.4,6.5c-1.8,1.8-4.1,3.4-6.5,4.4-2.3,1-5.2,1.6-8,1.6s-5.7-.5-8-1.6c-2.6-1-4.7-2.6-6.5-4.4-1.8-1.8-3.4-3.9-4.4-6.5-1-2.6-1.6-5.2-1.6-8ZM361.6,321.2c0,2.1.3,3.9.8,5.4.5,1.6,1.6,3.1,2.6,4.4s2.3,2.1,4.1,2.8c1.6.8,3.4,1,5.4,1s3.9-.3,5.4-1,2.8-1.6,4.1-2.8,2.1-2.6,2.6-4.4c.5-1.6.8-3.6.8-5.4s-.3-3.9-.8-5.4-1.6-3.1-2.6-4.4-2.3-2.1-4.1-2.8c-1.6-.8-3.4-1-5.4-1s-3.9.3-5.4,1c-1.6.8-2.8,1.6-4.1,2.8-1,1.3-2.1,2.6-2.6,4.4-.5,1.6-.8,3.6-.8,5.4Z"/>
  <path class="st0" d="M438.9,340.8h-7.5v-5.9c-1,2.1-2.6,3.9-4.9,5.2s-4.9,1.8-8,1.8-3.6-.3-5.4-.8c-1.8-.5-3.1-1.6-4.4-2.6-1.3-1.3-2.3-2.8-3.1-4.7-.8-1.8-1-4.1-1-6.7v-25.1h7.5v23c0,1.8,0,3.4.8,4.7.8,1.3,1,2.3,2.1,3.1.8.8,1.8,1.3,2.8,1.8,1,.3,2.1.5,3.4.5s2.8,0,4.4-.8c1.3-.5,2.6-1.3,3.4-2.3,1-1,1.8-2.3,2.3-4.1.5-1.6.8-3.6.8-5.9v-20.2h7.5v39h-.5Z"/>
  <path class="st0" d="M489,340.8h-7.5v-5.7c-1.6,2.1-3.4,3.6-5.9,4.9-2.6,1-5.2,1.8-7.8,1.8s-5.7-.5-8.3-1.6-4.4-2.6-6.2-4.4-3.1-4.1-3.9-6.5c-.8-2.3-1.3-5.2-1.3-8s.5-5.7,1.3-8c1-2.6,2.3-4.7,3.9-6.5,1.8-1.8,3.9-3.4,6.2-4.4,2.3-1,5.2-1.6,8.3-1.6s5.4.5,8,1.8,4.4,2.8,5.7,4.9v-28.7h7.5v62.3-.5ZM468.9,334.9c2.1,0,3.9-.3,5.4-1s2.8-1.6,4.1-2.8,2.1-2.6,2.6-4.4c.5-1.6.8-3.6.8-5.4s-.3-3.9-.8-5.4-1.6-3.1-2.6-4.4-2.3-2.1-4.1-2.8c-1.6-.8-3.4-1-5.4-1s-3.9.3-5.4,1c-1.6.8-2.8,1.6-4.1,2.8-1,1.3-2.1,2.6-2.6,4.4-.5,1.6-.8,3.6-.8,5.4s.3,3.9.8,5.4c.5,1.6,1.6,3.1,2.6,4.4s2.3,2.1,4.1,2.8c1.6.8,3.4,1,5.4,1Z"/>
</svg>